<?xml version="1.0" encoding="UTF-8"?>
<svg fill="none" viewBox="0 0 220 43" xmlns="http://www.w3.org/2000/svg">
<path d="m33.9 21.05c0 11.15-8.6001 20.2-19.15 20.2h-14.75v-40.45h14.75c10.55 0 19.15 9.1 19.15 20.25zm-29.85-16.35v32.65h10.15c7.4 0 14.7-6.1 15.5-14.65v-0.2-0.1-0.05l0.0501-0.1v-1.2-0.35-0.2c-0.25-9-7.7-15.8-15.55-15.8h-10.15zm35.787 36.55h-5.35v-5.5h5.35v5.5zm26.71-19.75h-18.65v19.75h-4.05v-40.45h26.65v3.95h-22.6v12.85h18.65v3.9zm22.098-21.5c11.55 0 19.05 8.05 19.05 21.05 0 15.5-9.8499 21.05-19.05 21.05-11.6 0-19.05-8.25-19.05-21.05 0-6.55 1.95-11.95 5.6-15.75 3.4-3.45 8.15-5.3 13.45-5.3zm0 38c9.35 0 14.9-6.1 14.9-16.95 0-12.6-7.5999-16.95-14.9-16.95-7.35 0-14.95 4.8-14.95 16.95 0 12.5 7.6 16.95 14.95 16.95zm44.12-14.4 9.85 17.7h-4.8l-9.75-17.7h4.7zm9-11.4c0 8.5-6 10.95-9 11.4h-16.8v17.7h-4.15v-40.45l16.7-0.05c5.1 0 13.25 2.9 13.25 11.4zm-12.45 7.3c5.55 0 8.35-2.15 8.35-7.3 0-4.35-4-7.2-8.35-7.2h-13.35v14.5h13.35zm35.073 21.75-14-35.75v35.75h-4.1v-40.45h6.55l13.45 34.65 13.35-34.65h6.6v40.45h-4.15l0.05-35.75-14 35.75h-3.75zm30.86-30.45c0 12 24.2 3 24.2 19.35 0 5.25-3.75 11.95-14.65 11.95-9.7 0-14.65-6.95-14.65-12.85h4.1c0 4.25 4.05 8.75 10.95 8.75 7.45 0 10.2-4.1 10.2-8.35 0-11.4-24.25-2.45-24.25-19 0-5.95 4.85-10.65 13.45-10.65 8.05 0 13.05 4.95 13.05 11.9h-4.1c0-4.45-3.35-7.8-8.95-7.8-5.5 0-9.35 2.3-9.35 6.7z" fill="#F3F3F3"/>
</svg>
